<svg width="14" height="12" viewBox="0 0 14 12" fill="none" xmlns="http://www.w3.org/2000/svg">
<path d="M13.5444 7.18136L12.2566 5.36269C12.0437 5.06289 11.6283 4.99029 11.3269 5.20382L9.50862 6.49129C9.20848 6.70382 9.13688 7.11989 9.34975 7.42036C9.56262 7.72049 9.97802 7.79242 10.2794 7.57922L10.8884 7.14802C10.7576 7.59096 10.5577 8.01222 10.2787 8.39302C9.50268 9.45262 8.30802 10.06 7.00008 10.06C5.81288 10.06 4.69375 9.54342 3.93008 8.64269C3.69248 8.36276 3.27188 8.32822 2.99028 8.56556C2.70968 8.80382 2.67488 9.22442 2.91315 9.50536C3.93075 10.7052 5.42028 11.3934 7.00008 11.3934C8.71235 11.3934 10.34 10.5662 11.3543 9.18082C11.7228 8.67776 11.9882 8.12176 12.1623 7.53709L12.4558 7.95169C12.586 8.13529 12.7917 8.23329 13.0007 8.23329C13.1335 8.23329 13.2683 8.19356 13.3855 8.11056C13.6856 7.89782 13.7572 7.48176 13.5444 7.18136Z" fill="#0096EB"/>
<path d="M4.65043 4.57938C4.43723 4.27865 4.02116 4.20731 3.72103 4.42025L3.11189 4.85145C3.24256 4.40838 3.44243 3.98725 3.72103 3.60678C4.49709 2.54751 5.69209 1.93978 7.00003 1.93978C8.18756 1.93978 9.30669 2.45638 10.0704 3.35711C10.3086 3.63738 10.7292 3.67251 11.0098 3.43425C11.2911 3.19598 11.3256 2.77538 11.0873 2.49445C10.0697 1.29458 8.5801 0.606445 7.00003 0.606445C5.28809 0.606445 3.66016 1.43358 2.64556 2.81898C2.27723 3.32191 2.01196 3.87805 1.83796 4.46305L1.54429 4.04818C1.33109 3.74738 0.915361 3.67611 0.614961 3.88898C0.314561 4.10185 0.243228 4.51791 0.455761 4.81831L1.74323 6.63698C1.87343 6.82058 2.07916 6.91858 2.28816 6.91858C2.42129 6.91858 2.55576 6.87885 2.67263 6.79618L4.49129 5.50871C4.7917 5.29585 4.86296 4.87985 4.65043 4.57938Z" fill="#264152"/>
</svg>
