<svg width="30" height="30" viewBox="0 0 30 30" fill="none" xmlns="http://www.w3.org/2000/svg">
<path d="M6 8C6 6.89543 6.89543 6 8 6H11C12.1046 6 13 6.89543 13 8V11C13 12.1046 12.1046 13 11 13H8C6.89543 13 6 12.1046 6 11V8Z" stroke="#264152" stroke-width="2"/>
<path d="M6 19C6 17.8954 6.89543 17 8 17H11C12.1046 17 13 17.8954 13 19V22C13 23.1046 12.1046 24 11 24H8C6.89543 24 6 23.1046 6 22V19Z" stroke="#264152" stroke-width="2"/>
<path d="M17 8C17 6.89543 17.8954 6 19 6H22C23.1046 6 24 6.89543 24 8V11C24 12.1046 23.1046 13 22 13H19C17.8954 13 17 12.1046 17 11V8Z" stroke="#264152" stroke-width="2"/>
<path d="M17 20.5C17 18.567 18.567 17 20.5 17C22.433 17 24 18.567 24 20.5C24 22.433 22.433 24 20.5 24C18.567 24 17 22.433 17 20.5Z" stroke="#0096EB" stroke-width="2" stroke-linecap="round" stroke-linejoin="round"/>
</svg>
