<svg width="24" height="24" viewBox="0 0 24 24" fill="none" xmlns="http://www.w3.org/2000/svg">
<path d="M12.5 9.10078V6.18181L14.9325 9.10078H12.5Z" fill="#0096EB" stroke="#0096EB" stroke-linejoin="round"/>
<path d="M13.3794 3.40039L18.2 8.32818V18.9604C18.2 19.1114 18.1477 19.3568 18.0225 19.5345C17.9672 19.6131 17.9024 19.6724 17.8223 19.7146C17.7436 19.7561 17.6138 19.8004 17.4 19.8004H6.60005C6.46458 19.8004 6.23553 19.7505 6.06781 19.627C5.99376 19.5725 5.93386 19.5059 5.88968 19.4184C5.84567 19.3311 5.80005 19.1891 5.80005 18.9604V4.24039C5.80005 4.08937 5.85243 3.84396 5.97761 3.66624C6.03295 3.58767 6.09772 3.52839 6.17775 3.48619C6.25649 3.44467 6.38635 3.40039 6.60005 3.40039H13.3794Z" stroke="#264152" stroke-width="2"/>
</svg>
