<svg width="16" height="10" viewBox="0 0 16 10" fill="none" xmlns="http://www.w3.org/2000/svg">
<mask id="path-1-inside-1_349_712" fill="white">
<path d="M15 -4.37114e-08C15.5523 -1.95703e-08 16 0.447716 16 1V1C16 1.55229 15.5523 2 15 2L1 2C0.447715 2 -6.78525e-08 1.55228 -4.37114e-08 1V1C-1.95703e-08 0.447715 0.447715 -6.79812e-07 1 -6.55671e-07L15 -4.37114e-08Z"/>
</mask>
<path d="M15 6.71544e-07L1 5.95849e-08L1 4L15 4L15 6.71544e-07ZM1 2L15 2L15 -2L1 -2L1 2ZM2 1C2 1.55228 1.55229 2 1 2L1 -2C-0.656855 -2 -2 -0.656854 -2 1L2 1ZM1 5.95849e-08C1.55229 8.3726e-08 2 0.447716 2 1L-2 1C-2 2.65685 -0.656855 4 1 4L1 5.95849e-08ZM14 1C14 0.447716 14.4477 6.47403e-07 15 6.71544e-07L15 4C16.6569 4 18 2.65685 18 1L14 1ZM18 1C18 -0.656853 16.6569 -2 15 -2L15 2C14.4477 2 14 1.55228 14 1L18 1Z" fill="#264152" mask="url(#path-1-inside-1_349_712)"/>
<mask id="path-3-inside-2_349_712" fill="white">
<path d="M11 8C11.5523 8 12 8.44772 12 9V9C12 9.55228 11.5523 10 11 10L5 10C4.44772 10 4 9.55228 4 9V9C4 8.44771 4.44772 8 5 8L11 8Z"/>
</mask>
<path d="M11 8L5 8L5 12L11 12L11 8ZM5 10L11 10L11 6L5 6L5 10ZM6 9C6 9.55228 5.55228 10 5 10L5 6C3.34315 6 2 7.34315 2 9L6 9ZM5 8C5.55228 8 6 8.44772 6 9L2 9C2 10.6569 3.34315 12 5 12L5 8ZM10 9C10 8.44772 10.4477 8 11 8L11 12C12.6569 12 14 10.6569 14 9L10 9ZM14 9C14 7.34315 12.6569 6 11 6L11 10C10.4477 10 10 9.55228 10 9L14 9Z" fill="#0096EB" mask="url(#path-3-inside-2_349_712)"/>
<path d="M3 5L13 5L14 5L13 5L3 5L2 5L3 5Z" stroke="#264152" stroke-width="2"/>
</svg>
