<svg width="115" height="68" viewBox="0 0 115 68" fill="none" xmlns="http://www.w3.org/2000/svg">
<path d="M19.4656 22.9902C20.8922 21.5509 21.2225 19.3314 20.2906 17.4438L22.7614 14.9729L23.2347 15.4462C23.6252 15.8367 24.2584 15.8367 24.6489 15.4462L25.4973 14.5978C25.8878 14.2073 25.8878 13.5741 25.4973 13.1836L23.3704 11.0567C22.9799 10.6662 22.3467 10.6662 21.9562 11.0567L17.9298 15.083C15.6587 13.9675 12.9834 14.7005 11.7127 16.7862C10.4425 18.8713 10.9809 21.6458 12.9654 23.2336C14.9492 24.8208 17.7462 24.7166 19.4656 22.9902ZM14.7441 18.2687C15.3689 17.644 16.404 17.6659 17.0558 18.3178C17.7077 18.9696 17.7297 20.0047 17.1049 20.6295C16.4801 21.2542 15.4451 21.2322 14.7932 20.5804C14.1414 19.9285 14.1194 18.8935 14.7441 18.2687Z" fill="#B2C6D2" fill-opacity="0.4"/>
<path d="M71.5319 22.9902C72.9585 21.551 73.2888 19.3314 72.3568 17.4438L74.8277 14.9729L75.301 15.4462C75.6915 15.8367 76.3247 15.8367 76.7152 15.4462L77.5636 14.5978C77.9541 14.2073 77.9541 13.5741 77.5636 13.1836L75.4367 11.0567C75.0462 10.6662 74.413 10.6662 74.0225 11.0567L69.9961 15.083C67.725 13.9675 65.0497 14.7005 63.779 16.7862C62.5088 18.8713 63.0472 21.6458 65.0317 23.2336C67.0155 24.8208 69.8125 24.7166 71.5319 22.9902ZM66.8104 18.2687C67.4352 17.644 68.4703 17.6659 69.1221 18.3178C69.774 18.9696 69.7959 20.0047 69.1712 20.6295C68.5464 21.2542 67.5114 21.2323 66.8595 20.5804C66.2076 19.9285 66.1857 18.8935 66.8104 18.2687Z" fill="#B2C6D2" fill-opacity="0.4"/>
<path d="M100.852 56.3702C102.278 54.931 102.609 52.7114 101.677 50.8238L104.148 48.3529L104.621 48.8262C105.011 49.2167 105.645 49.2167 106.035 48.8262L106.884 47.9778C107.274 47.5873 107.274 46.9541 106.884 46.5636L104.757 44.4367C104.366 44.0462 103.733 44.0462 103.342 44.4367L99.316 48.4631C97.0449 47.3475 94.3696 48.0805 93.0989 50.1662C91.8288 52.2513 92.3672 55.0258 94.3516 56.6136C96.3355 58.2008 99.1324 58.0966 100.852 56.3702ZM96.1304 51.6487C96.7551 51.024 97.7902 51.0459 98.4421 51.6978C99.0939 52.3496 99.1159 53.3847 98.4911 54.0095C97.8664 54.6342 96.8313 54.6123 96.1794 53.9604C95.5276 53.3085 95.5056 52.2735 96.1304 51.6487Z" fill="#B2C6D2" fill-opacity="0.4"/>
<path d="M48.4656 56.3702C49.8922 54.931 50.2225 52.7114 49.2906 50.8238L51.7614 48.3529L52.2347 48.8262C52.6252 49.2167 53.2584 49.2167 53.6489 48.8262L54.4973 47.9778C54.8878 47.5873 54.8878 46.9541 54.4973 46.5636L52.3704 44.4367C51.9799 44.0462 51.3467 44.0462 50.9562 44.4367L46.9298 48.4631C44.6587 47.3475 41.9834 48.0805 40.7127 50.1662C39.4425 52.2513 39.9809 55.0258 41.9654 56.6136C43.9492 58.2008 46.7462 58.0966 48.4656 56.3702ZM43.7441 51.6487C44.3689 51.024 45.404 51.0459 46.0558 51.6978C46.7077 52.3496 46.7297 53.3847 46.1049 54.0095C45.4801 54.6342 44.4451 54.6123 43.7932 53.9604C43.1414 53.3085 43.1194 52.2735 43.7441 51.6487Z" fill="#B2C6D2" fill-opacity="0.4"/>
</svg>
