<svg width="24" height="24" viewBox="0 0 24 24" fill="none" xmlns="http://www.w3.org/2000/svg">
<g clip-path="url(#clip0_10853_65921)">
<circle cx="9" cy="8" r="3" fill="#264152"/>
<circle cx="16" cy="8" r="2" stroke="#0096EB" stroke-width="2"/>
<path d="M9 13C5.87543 13 3.83845 14.2977 2.59342 15.7844C1.38513 17.2272 2.74344 19 4.62537 19H13.3746C15.2566 19 16.6149 17.2272 15.4066 15.7844C14.1615 14.2977 12.1246 13 9 13Z" fill="#264152"/>
<mask id="path-4-inside-1_10853_65921" fill="white">
<path fill-rule="evenodd" clip-rule="evenodd" d="M13.3746 19H20.3746C22.2566 19 23.6149 17.2272 22.4066 15.7844C21.1615 14.2977 19.1246 13 16 13C14.6336 13 13.4752 13.2482 12.5 13.6518C13.7547 14.1711 14.706 14.9478 15.4066 15.7844C16.6149 17.2272 15.2566 19 13.3746 19Z"/>
</mask>
<path fill-rule="evenodd" clip-rule="evenodd" d="M13.3746 19H20.3746C22.2566 19 23.6149 17.2272 22.4066 15.7844C21.1615 14.2977 19.1246 13 16 13C14.6336 13 13.4752 13.2482 12.5 13.6518C13.7547 14.1711 14.706 14.9478 15.4066 15.7844C16.6149 17.2272 15.2566 19 13.3746 19Z" fill="#0096EB"/>
<path d="M22.4066 15.7844L20.8733 17.0685L22.4066 15.7844ZM12.5 13.6518L11.7351 11.8038L7.2705 13.6518L11.7351 15.4998L12.5 13.6518ZM15.4066 15.7844L13.8733 17.0685H13.8733L15.4066 15.7844ZM13.3746 21H20.3746V17H13.3746V21ZM20.3746 21C21.9209 21 23.3765 20.2744 24.2036 19.0574C25.1025 17.7347 25.1489 15.9439 23.9399 14.5003L20.8733 17.0685C20.8996 17.0999 20.8968 17.1054 20.8871 17.0813C20.877 17.0562 20.8665 17.0163 20.8648 16.9668C20.861 16.8617 20.8974 16.806 20.8953 16.809C20.8901 16.8167 20.8508 16.8664 20.7532 16.9158C20.6596 16.9632 20.5311 17 20.3746 17V21ZM23.9399 14.5003C22.3408 12.5908 19.7556 11 16 11V15C18.4935 15 19.9823 16.0046 20.8733 17.0685L23.9399 14.5003ZM16 11C14.3859 11 12.9661 11.2943 11.7351 11.8038L13.2649 15.4998C13.9842 15.202 14.8812 15 16 15V11ZM16.9399 14.5003C16.0561 13.4449 14.8498 12.4599 13.2649 11.8038L11.7351 15.4998C12.6597 15.8824 13.356 16.4508 13.8733 17.0685L16.9399 14.5003ZM13.3746 21C14.9209 21 16.3765 20.2744 17.2036 19.0574C18.1025 17.7347 18.1489 15.9439 16.9399 14.5003L13.8733 17.0685C13.8996 17.0999 13.8968 17.1054 13.8871 17.0813C13.877 17.0562 13.8665 17.0163 13.8648 16.9668C13.861 16.8617 13.8974 16.806 13.8953 16.809C13.8901 16.8167 13.8508 16.8664 13.7532 16.9158C13.6596 16.9632 13.5311 17 13.3746 17V21Z" fill="#0096EB" mask="url(#path-4-inside-1_10853_65921)"/>
</g>
<defs>
<clipPath id="clip0_10853_65921">
<rect width="24" height="24" fill="white"/>
</clipPath>
</defs>
</svg>
