<svg width="16" height="17" viewBox="0 0 16 17" fill="none" xmlns="http://www.w3.org/2000/svg">
<g clip-path="url(#clip0_10853_65993)">
<circle cx="6" cy="5.83301" r="2" fill="#264152"/>
<circle cx="10.6665" cy="5.83301" r="1" stroke="#0096EB" stroke-width="2"/>
<path d="M5.99984 9.16699C4.53184 9.16699 3.42395 9.59666 2.60718 10.1973C1.09106 11.3122 2.40995 13.167 4.29187 13.167H7.7078C9.58973 13.167 10.9086 11.3122 9.3925 10.1973C8.57572 9.59666 7.46783 9.16699 5.99984 9.16699Z" fill="#264152"/>
<mask id="path-4-inside-1_10853_65993" fill="white">
<path fill-rule="evenodd" clip-rule="evenodd" d="M8.3335 13.0969C9.85663 12.7489 10.734 11.1836 9.39282 10.1973C9.08289 9.96937 8.73104 9.76608 8.3335 9.60153C8.9836 9.33244 9.75588 9.16699 10.6668 9.16699C12.1348 9.16699 13.2427 9.59666 14.0595 10.1973C15.5756 11.3122 14.2567 13.167 12.3748 13.167H8.95886C8.74175 13.167 8.53213 13.1423 8.3335 13.0969Z"/>
</mask>
<path d="M8.3335 13.0969L7.88797 11.1472L7.88797 15.0467L8.3335 13.0969ZM9.39282 10.1973L8.20797 11.8085L8.20797 11.8085L9.39282 10.1973ZM8.3335 9.60153L7.5686 7.75357L3.10399 9.60153L7.5686 11.4495L8.3335 9.60153ZM14.0595 10.1973L12.8746 11.8085V11.8085L14.0595 10.1973ZM8.77902 15.0467C10.0421 14.758 11.232 13.9276 11.7721 12.6823C12.0533 12.0341 12.1552 11.2604 11.9313 10.4715C11.7072 9.68179 11.2059 9.04805 10.5777 8.58604L8.20797 11.8085C8.25031 11.8397 8.1423 11.7714 8.0833 11.5635C8.02449 11.3563 8.06337 11.1807 8.10247 11.0906C8.13609 11.013 8.16032 11.0125 8.11373 11.0482C8.07146 11.0806 7.99525 11.1227 7.88797 11.1472L8.77902 15.0467ZM10.5777 8.58604C10.1421 8.26574 9.64979 7.98181 9.09839 7.75357L7.5686 11.4495C7.81228 11.5503 8.02367 11.673 8.20797 11.8085L10.5777 8.58604ZM10.6668 7.16699C9.50823 7.16699 8.47455 7.37859 7.5686 7.75357L9.09839 11.4495C9.49265 11.2863 10.0035 11.167 10.6668 11.167V7.16699ZM15.2443 8.58604C14.0766 7.72733 12.5517 7.16699 10.6668 7.16699V11.167C11.718 11.167 12.4088 11.466 12.8746 11.8085L15.2443 8.58604ZM12.3748 15.167C13.9326 15.167 15.4112 14.407 16.1893 13.1573C16.5914 12.5114 16.8324 11.6761 16.6682 10.7737C16.5012 9.8553 15.9591 9.11165 15.2443 8.58604L12.8746 11.8085C12.9179 11.8404 12.7796 11.7467 12.7328 11.4896C12.689 11.2486 12.7669 11.086 12.7936 11.0432C12.8162 11.0068 12.8049 11.042 12.7159 11.0887C12.6341 11.1317 12.5173 11.167 12.3748 11.167V15.167ZM8.95886 15.167H12.3748V11.167H8.95886V15.167ZM7.88797 15.0467C8.23097 15.125 8.59 15.167 8.95886 15.167V11.167C8.8935 11.167 8.83329 11.1596 8.77902 11.1472L7.88797 15.0467Z" fill="#0096EB" mask="url(#path-4-inside-1_10853_65993)"/>
</g>
<defs>
<clipPath id="clip0_10853_65993">
<rect width="16" height="16" fill="white" transform="translate(0 0.5)"/>
</clipPath>
</defs>
</svg>
