<svg width="24" height="24" viewBox="0 0 24 24" fill="none" xmlns="http://www.w3.org/2000/svg">
<path d="M17 8V6C17 3.24 14.76 1 12 1C9.24 1 7 3.24 7 6V8H6C4.89543 8 4 8.89543 4 10V20C4 21.1046 4.89543 22 6 22H18C19.1046 22 20 21.1046 20 20V10C20 8.89543 19.1046 8 18 8H17ZM9 6C9 4.34 10.34 3 12 3C13.66 3 15 4.34 15 6V8H9V6ZM18 19C18 19.5523 17.5523 20 17 20H7C6.44772 20 6 19.5523 6 19V11C6 10.4477 6.44772 10 7 10H17C17.5523 10 18 10.4477 18 11V19ZM12 17C13.1 17 14 16.1 14 15C14 13.9 13.1 13 12 13C10.9 13 10 13.9 10 15C10 16.1 10.9 17 12 17Z" fill="#0096EB"/>
</svg>
