<svg width="24" height="24" viewBox="0 0 24 24" fill="none" xmlns="http://www.w3.org/2000/svg">
<path fill-rule="evenodd" clip-rule="evenodd" d="M13 17.8388L13.9289 17.0957C14.8154 16.3864 15.917 16 17.0523 16H19C19.5523 16 20 15.5523 20 15V5C20 4.44772 19.5523 4 19 4H5C4.44772 4 4 4.44772 4 5V15C4 15.5523 4.44772 16 5 16H13V17.8388ZM5 18C3.34315 18 2 16.6569 2 15V5C2 3.34315 3.34315 2 5 2H19C20.6569 2 22 3.34315 22 5V15C22 16.6569 20.6569 18 19 18H17.0523C16.3711 18 15.7102 18.2318 15.1783 18.6574L12.6247 20.7002C11.9699 21.2241 11 20.7579 11 19.9194V18H5Z" fill="#264152"/>
<path fill-rule="evenodd" clip-rule="evenodd" d="M7 8C7 7.44772 7.44772 7 8 7L12 7C12.5523 7 13 7.44772 13 8C13 8.55229 12.5523 9 12 9L8 9C7.44772 9 7 8.55228 7 8Z" fill="#0096EB"/>
<path fill-rule="evenodd" clip-rule="evenodd" d="M7 12C7 11.4477 7.44772 11 8 11L16 11C16.5523 11 17 11.4477 17 12C17 12.5523 16.5523 13 16 13L8 13C7.44772 13 7 12.5523 7 12Z" fill="#264152"/>
<path fill-rule="evenodd" clip-rule="evenodd" d="M14 8C14 7.44772 14.4477 7 15 7L16 7C16.5523 7 17 7.44771 17 8C17 8.55228 16.5523 9 16 9L15 9C14.4477 9 14 8.55228 14 8Z" fill="#264152"/>
</svg>
