<svg width="32" height="32" viewBox="0 0 32 32" fill="none" xmlns="http://www.w3.org/2000/svg">
<path d="M16 26.6662C17.1733 26.6662 18.1333 25.7062 18.1333 24.5329H13.8666C13.8666 25.0987 14.0914 25.6413 14.4915 26.0414C14.8915 26.4414 15.4342 26.6662 16 26.6662ZM22.4 20.2662V14.9329C22.4 11.6582 20.6506 8.91688 17.6 8.19154V7.46621C17.6 6.58088 16.8853 5.86621 16 5.86621C15.1146 5.86621 14.4 6.58088 14.4 7.46621V8.19154C11.3386 8.91688 9.59996 11.6475 9.59996 14.9329V20.2662L8.22396 21.6422C7.55196 22.3142 8.02129 23.4662 8.97062 23.4662H23.0186C23.968 23.4662 24.448 22.3142 23.776 21.6422L22.4 20.2662Z" fill="#264152"/>
<path d="M15.9995 26.6665C17.1729 26.6665 18.1329 25.7065 18.1329 24.5332H13.8662C13.8662 25.099 14.091 25.6416 14.4911 26.0417C14.8911 26.4418 15.4337 26.6665 15.9995 26.6665Z" fill="#0096EB"/>
</svg>
