<svg width="24" height="24" viewBox="0 0 24 24" fill="none" xmlns="http://www.w3.org/2000/svg">
<path d="M3 5.5C3 4.39543 3.89543 3.5 5 3.5V3.5C6.10457 3.5 7 4.39543 7 5.5L7 18.5C7 19.6046 6.10457 20.5 5 20.5V20.5C3.89543 20.5 3 19.6046 3 18.5L3 5.5Z" stroke="#264152" stroke-width="2"/>
<path d="M10.5 11.5C10.5 10.3954 11.3954 9.5 12.5 9.5V9.5C13.6046 9.5 14.5 10.3954 14.5 11.5L14.5 18.5C14.5 19.6046 13.6046 20.5 12.5 20.5V20.5C11.3954 20.5 10.5 19.6046 10.5 18.5L10.5 11.5Z" stroke="#0096EB" stroke-width="2" stroke-linecap="round"/>
<path d="M18 8.6001C18 7.49553 18.8954 6.6001 20 6.6001V6.6001C21.1046 6.6001 22 7.49553 22 8.6001L22 18.6001C22 19.7047 21.1046 20.6001 20 20.6001V20.6001C18.8954 20.6001 18 19.7047 18 18.6001L18 8.6001Z" stroke="#264152" stroke-width="2"/>
</svg>
