<svg width="24" height="24" viewBox="0 0 24 24" fill="none" xmlns="http://www.w3.org/2000/svg">
<path d="M12 19V18H11H5C3.89543 18 3 17.1046 3 16V6C3 4.89543 3.89543 4 5 4H19C20.1046 4 21 4.89543 21 6V16C21 17.1046 20.1046 18 19 18H17.0523C16.1441 18 15.2628 18.3091 14.5536 18.8765L12 20.9194L12 19Z" stroke="#264152" stroke-width="2"/>
<path d="M10.0004 14C11.2669 13.9946 12.3938 13.1931 12.8162 11.9968L15.0001 11.9968C15.0001 12.5491 15.4478 12.9984 16.0001 12.9984C16.5523 12.9984 17 12.5507 17 11.9985L17 10.9937C17 10.4414 16.5523 9.99368 16 9.99368L12.8162 9.99368C12.3054 8.55684 10.7992 7.73279 9.31587 8.07855C7.83304 8.42431 6.84482 9.82984 7.0201 11.3454C7.19538 12.8605 8.47754 14.0029 10.0004 14ZM10.0004 9.99368C10.5526 9.99368 11.0003 10.4421 11.0003 10.9953C11.0003 11.5484 10.5526 11.9968 10.0004 11.9968C9.44818 11.9968 9.00046 11.5484 9.00046 10.9953C9.00046 10.4421 9.44818 9.99368 10.0004 9.99368Z" fill="#0096EB"/>
</svg>
