<svg width="24" height="24" viewBox="0 0 24 24" fill="none" xmlns="http://www.w3.org/2000/svg">
<g clip-path="url(#clip0_10798_67628)">
<path fill-rule="evenodd" clip-rule="evenodd" d="M2.99985 6C2.99985 3.79086 4.79071 2 6.99985 2L16.9998 2C19.209 2 20.9998 3.79086 20.9998 6L20.9998 11.1315L22.4451 10.1679C22.9047 9.8616 23.5255 9.98577 23.8319 10.4453C24.1383 10.9048 24.0141 11.5257 23.5545 11.8321L19.9998 14.2019L16.4451 11.8321C15.9856 11.5257 15.8614 10.9048 16.1678 10.4453C16.4741 9.98577 17.095 9.8616 17.5545 10.1679L18.9998 11.1315L18.9998 6C18.9998 4.89543 18.1044 4 16.9998 4L6.99985 4C5.89528 4 4.99985 4.89543 4.99985 6L4.99985 7C4.99985 7.55228 4.55213 8 3.99985 8C3.44756 8 2.99985 7.55228 2.99985 7L2.99985 6Z" fill="#0096EB"/>
<path fill-rule="evenodd" clip-rule="evenodd" d="M20.9998 18C20.9998 20.2091 19.209 22 16.9998 22L6.99985 22C4.79071 22 2.99985 20.2091 2.99985 18L2.99985 12.8685L1.55455 13.8321C1.09502 14.1384 0.47415 14.0142 0.167797 13.5547C-0.138556 13.0952 -0.0143814 12.4743 0.445147 12.1679L3.99985 9.79815L7.55455 12.1679C8.01408 12.4743 8.13825 13.0952 7.8319 13.5547C7.52555 14.0142 6.90468 14.1384 6.44515 13.8321L4.99985 12.8685L4.99985 18C4.99985 19.1046 5.89528 20 6.99985 20L16.9998 20C18.1044 20 18.9998 19.1046 18.9998 18V17C18.9998 16.4477 19.4476 16 19.9998 16C20.5521 16 20.9998 16.4477 20.9998 17V18Z" fill="#264152"/>
</g>
<defs>
<clipPath id="clip0_10798_67628">
<rect width="24" height="24" fill="white"/>
</clipPath>
</defs>
</svg>
