<svg width="24" height="24" viewBox="0 0 24 24" fill="none" xmlns="http://www.w3.org/2000/svg">
<path fill-rule="evenodd" clip-rule="evenodd" d="M9 8C9 7.44772 8.55228 7 8 7L7 7C6.44772 7 6 7.44772 6 8C6 8.55228 6.44772 9 7 9L8 9C8.55228 9 9 8.55228 9 8ZM9 12C9 11.4477 8.55229 11 8 11L7 11C6.44772 11 6 11.4477 6 12C6 12.5523 6.44772 13 7 13L8 13C8.55229 13 9 12.5523 9 12ZM8 15C8.55229 15 9 15.4477 9 16C9 16.5523 8.55229 17 8 17L7 17C6.44772 17 6 16.5523 6 16C6 15.4477 6.44772 15 7 15L8 15Z" fill="#0096EB"/>
<path d="M12 3L4 3C3.44772 3 3 3.44772 3 4L3 7.5L3 12L3 16.5L3 20C3 20.5523 3.44772 21 4 21L12 21" stroke="#264152" stroke-width="2" stroke-linecap="round"/>
<path fill-rule="evenodd" clip-rule="evenodd" d="M14.4751 15.9902L15.8175 17.2789C16.2159 17.6614 16.2289 18.2944 15.8464 18.6928C15.4639 19.0912 14.8309 19.1041 14.4325 18.7217L11.3075 15.7217C11.111 15.5331 11 15.2726 11 15.0003C11 14.728 11.111 14.4675 11.3075 14.2789L14.4325 11.2789C14.8309 10.8964 15.4639 10.9093 15.8464 11.3077C16.2289 11.7062 16.2159 12.3392 15.8175 12.7217L14.4998 13.9867C15.8109 13.9135 17.0414 13.5446 17.7926 12.7933C18.7303 11.8557 19.257 10.5839 19.257 9.25781C19.257 7.85246 18.9382 6.85314 18.0499 5.96492C17.6594 5.5744 17.6594 4.94123 18.0499 4.55071C18.4405 4.16018 19.0736 4.16018 19.4642 4.55071C20.8264 5.91292 21.257 7.48057 21.257 9.25781C21.257 11.1143 20.5195 12.8948 19.2068 14.2076C17.9312 15.4831 16.072 15.9207 14.4751 15.9902Z" fill="#0096EB"/>
</svg>
