<?xml version="1.0" encoding="utf-8"?><svg xmlns="http://www.w3.org/2000/svg" xmlns:xlink="http://www.w3.org/1999/xlink"><symbol viewBox="0 0 8 8" id="active" xmlns="http://www.w3.org/2000/svg"><circle cx="4" cy="4" r="4"/></symbol><symbol viewBox="0 0 24 25" id="add-chat" xmlns="http://www.w3.org/2000/svg"><path d="M12 19.5v-1H5a2 2 0 01-2-2v-10a2 2 0 012-2h14a2 2 0 012 2v10a2 2 0 01-2 2h-1.948a4 4 0 00-2.498.877L12 21.419V19.5z"/><path d="M10.708 14.5c0 .55.45 1 1 1s1-.45 1-1v-2h2c.55 0 1-.45 1-1s-.45-1-1-1h-2v-2c0-.55-.45-1-1-1s-1 .45-1 1v2h-2c-.55 0-1 .45-1 1s.45 1 1 1h2v2z"/></symbol><symbol viewBox="0 0 8 13" id="arrow-down" xmlns="http://www.w3.org/2000/svg"><path d="M4 1v10m0 0l3-2m-3 2L1 9"/></symbol><symbol viewBox="0 0 13 8" id="arrow-left" xmlns="http://www.w3.org/2000/svg"><path d="M12 4H2m0 0l2 3M2 4l2-3"/></symbol><symbol viewBox="0 0 22 24" id="basket" xmlns="http://www.w3.org/2000/svg"><g clip-path="url(#aea)"><path d="M10.363 18.443a2.046 2.046 0 00-2.045 2.042 2.046 2.046 0 004.09 0 2.046 2.046 0 00-2.045-2.042zm6.134 0a2.046 2.046 0 00-2.045 2.042 2.046 2.046 0 004.089 0 2.046 2.046 0 00-2.044-2.042zm3.978-8.199L7.413 6.891a.614.614 0 00-.75.73L8.67 16.4h-.786L5.482 5.895a.613.613 0 00-.474-.464l-4.27-.882A.614.614 0 00.489 5.75l3.885.802L6.797 17.15a.613.613 0 00.598.477h12.07a.615.615 0 00.607-.53l.858-6.175a.613.613 0 00-.455-.678zm-8.14 3.91a.613.613 0 01-1.227 0v-2.696a.613.613 0 011.227 0v2.696zm2.625 0a.613.613 0 01-1.227 0v-1.88a.613.613 0 011.227 0v1.88zm2.625 0a.613.613 0 01-1.227 0v-1.226a.613.613 0 011.227 0v1.226z"/></g><path fill-rule="evenodd" clip-rule="evenodd" d="M16.268 4.568a2.996 2.996 0 00-1.693-.523c-.627 0-1.21.193-1.693.523-.28-.843-.492-1.752-.492-2.383C12.39.98 13.37 0 14.575 0s2.185.98 2.185 2.185c0 .631-.212 1.54-.492 2.383zm-4.722 2.274l.024.006v-.011l-.024.005zm4.972 1.217c-1.333-.33-2.766-.681-4.129-1.013a2.185 2.185 0 114.129 1.013zm4.436 1.103c-.866-.217-2.155-.538-3.618-.9a2.995 2.995 0 00.243-1.425c.87.18 1.762.45 2.308.765.596.344.969.928 1.067 1.56zM9.869 6.439c-.36-.086-.706-.167-1.03-.243a2.19 2.19 0 01-.376-2.667 2.188 2.188 0 013.147-.7c.098.738.338 1.599.61 2.353a3.01 3.01 0 00-.449.774c-.628.113-1.305.278-1.902.483zm10.124.075a3.43 3.43 0 01-.217.114c-.696-.295-1.587-.526-2.397-.672a3.01 3.01 0 00-.449-.774c.262-.727.494-1.553.599-2.273.095-.067.189-.128.278-.18a2.188 2.188 0 012.986.8 2.188 2.188 0 01-.8 2.985z"/><defs><clipPath id="aea"><path transform="translate(0 3.064)" d="M0 0h20.936v20.936H0z"/></clipPath></defs></symbol><symbol viewBox="0 0 20 20" id="chat-menu" xmlns="http://www.w3.org/2000/svg"><path d="M1 3a2 2 0 012-2h3a2 2 0 012 2v3a2 2 0 01-2 2H3a2 2 0 01-2-2V3zm0 11a2 2 0 012-2h3a2 2 0 012 2v3a2 2 0 01-2 2H3a2 2 0 01-2-2v-3zM12 3a2 2 0 012-2h3a2 2 0 012 2v3a2 2 0 01-2 2h-3a2 2 0 01-2-2V3zM12 15.5a3.5 3.5 0 117 0 3.5 3.5 0 01-7 0z"/></symbol><symbol viewBox="0 0 8 8" id="check" xmlns="http://www.w3.org/2000/svg"><path d="M3.371 5.722a.5.5 0 01-.707 0L1.604 4.66a.5.5 0 11.706-.706l.706.708 2.822-2.825a.501.501 0 11.709.708L3.37 5.723z"/></symbol><symbol viewBox="0 0 16 14" id="close-cross" xmlns="http://www.w3.org/2000/svg"><path fill-rule="evenodd" clip-rule="evenodd" d="M15.138 1.41L13.7 0 8 5.59 2.3 0 .864 1.41 6.563 7l-5.7 5.59L2.301 14 8 8.41 13.7 14l1.437-1.41L9.438 7l5.7-5.59z"/></symbol><symbol viewBox="0 0 24 24" id="delete" xmlns="http://www.w3.org/2000/svg"><g clip-path="url(#aia)" fill-rule="evenodd" clip-rule="evenodd"><path d="M7.593 2.837c0-.462.375-.837.837-.837h7.128a.837.837 0 110 1.674H8.43a.837.837 0 01-.837-.837zM3 6.186c0-.462.375-.837.837-.837h16.326a.837.837 0 110 1.674H3.837A.837.837 0 013 6.186zm15.411 1.68c.46.056.787.472.732.931l-.242 2.014a.837.837 0 01-1.663-.2l.242-2.013a.837.837 0 01.931-.732zm-13 0a.837.837 0 01.932.732l1.079 8.99c.05.42.407.738.83.738h1.446a.837.837 0 110 1.674H8.253a2.512 2.512 0 01-2.494-2.212L4.68 8.798a.837.837 0 01.732-.932zm8.882 7.427a1 1 0 011.414 0l2 2a1 1 0 01-1.414 1.414l-2-2a1 1 0 010-1.414z"/><path d="M17.707 15.293a1 1 0 010 1.414l-2 2a1 1 0 01-1.414-1.414l2-2a1 1 0 011.414 0zM12 8c.552 0 1 .366 1 .818v7.364c0 .452-.448.818-1 .818s-1-.366-1-.818V8.818c0-.452.448-.818 1-.818zm-3.374-.085a.818.818 0 01.914.71l.818 6.546a.818.818 0 11-1.624.203L7.916 8.83a.818.818 0 01.71-.914zm6.748 0a.818.818 0 00-.914.71l-.255 2.046a.818.818 0 101.623.203l.256-2.045a.818.818 0 00-.71-.914z"/><path d="M16 20.333a3.333 3.333 0 100-6.666 3.333 3.333 0 000 6.666zM16 22a5 5 0 100-10 5 5 0 000 10z"/></g><defs><clipPath id="aia"><path d="M0 0h24v24H0z"/></clipPath></defs></symbol><symbol viewBox="0 0 24 24" id="fb" xmlns="http://www.w3.org/2000/svg"><path d="M13.397 20.997v-8.196h2.765l.411-3.209h-3.176V7.548c0-.926.258-1.56 1.587-1.56h1.684v-2.86A22.108 22.108 0 0014.201 3c-2.444 0-4.122 1.492-4.122 4.231v2.355H7.332v3.21h2.753v8.201h3.312z"/></symbol><symbol viewBox="0 0 24 24" id="file" xmlns="http://www.w3.org/2000/svg"><path d="M18 22a2 2 0 002-2V8l-6-6H6a2 2 0 00-2 2v16a2 2 0 002 2h12zM13 4l5 5h-5V4zM7 8h3v2H7V8zm0 4h10v2H7v-2zm0 4h10v2H7v-2z"/></symbol><symbol viewBox="0 0 24 24" id="instagram" xmlns="http://www.w3.org/2000/svg"><path d="M11.999 7.377a4.624 4.624 0 100 9.248 4.624 4.624 0 000-9.248zm0 7.627a3.004 3.004 0 110-6.008 3.004 3.004 0 010 6.008zm4.807-6.719a1.078 1.078 0 100-2.156 1.078 1.078 0 000 2.156z"/><path d="M20.533 6.11A4.605 4.605 0 0017.9 3.48a6.607 6.607 0 00-2.186-.42c-.963-.042-1.268-.054-3.71-.054s-2.755 0-3.71.054a6.554 6.554 0 00-2.184.42 4.6 4.6 0 00-2.633 2.63 6.585 6.585 0 00-.419 2.186c-.043.962-.056 1.267-.056 3.71 0 2.442 0 2.753.056 3.71.015.748.156 1.486.419 2.187a4.61 4.61 0 002.634 2.632 6.583 6.583 0 002.185.45c.963.042 1.268.055 3.71.055s2.755 0 3.71-.055a6.616 6.616 0 002.186-.42 4.613 4.613 0 002.633-2.632c.263-.7.404-1.438.419-2.186.043-.962.056-1.267.056-3.71s0-2.753-.056-3.71a6.583 6.583 0 00-.421-2.217zm-1.218 9.533a5.046 5.046 0 01-.311 1.688 2.987 2.987 0 01-1.712 1.71c-.535.2-1.1.305-1.67.312-.95.044-1.218.055-3.654.055-2.438 0-2.687 0-3.655-.055a4.961 4.961 0 01-1.67-.311 2.984 2.984 0 01-1.718-1.711 5.08 5.08 0 01-.311-1.67c-.043-.95-.053-1.217-.053-3.653 0-2.437 0-2.686.053-3.655a5.038 5.038 0 01.311-1.687c.305-.79.93-1.41 1.719-1.712a5.01 5.01 0 011.669-.311c.95-.043 1.218-.055 3.655-.055s2.687 0 3.654.055a4.96 4.96 0 011.67.31 2.99 2.99 0 011.712 1.713 5.06 5.06 0 01.311 1.669c.043.95.054 1.218.054 3.655 0 2.436 0 2.698-.043 3.654h-.011v-.001z"/></symbol><symbol viewBox="0 0 16 11" id="key" xmlns="http://www.w3.org/2000/svg"><path d="M4.8 10.5c2.027-.009 3.83-1.345 4.506-3.339H12.8v.67a1 1 0 001 1H15a1 1 0 001-1V4.823a1 1 0 00-1-1H9.306C8.489 1.428 6.079.055 3.706.63 1.332 1.207-.249 3.55.031 6.076.312 8.6 2.364 10.505 4.801 10.5zm0-6.677c.884 0 1.6.747 1.6 1.67 0 .921-.716 1.668-1.6 1.668-.883 0-1.6-.747-1.6-1.669s.717-1.67 1.6-1.67z"/></symbol><symbol viewBox="0 0 20 10" id="link" xmlns="http://www.w3.org/2000/svg"><path d="M1.9 5c0-1.71 1.39-3.1 3.1-3.1h4V0H5a5 5 0 100 10h4V8.1H5C3.29 8.1 1.9 6.71 1.9 5zM6 6h8V4H6v2zm9-6h-4v1.9h4c1.71 0 3.1 1.39 3.1 3.1 0 1.71-1.39 3.1-3.1 3.1h-4V10h4a5 5 0 100-10z"/></symbol><symbol viewBox="0 0 24 24" id="lock" xmlns="http://www.w3.org/2000/svg"><path d="M17 8V6c0-2.76-2.24-5-5-5S7 3.24 7 6v2H6a2 2 0 00-2 2v10a2 2 0 002 2h12a2 2 0 002-2V10a2 2 0 00-2-2h-1zM9 6c0-1.66 1.34-3 3-3s3 1.34 3 3v2H9V6zm9 13a1 1 0 01-1 1H7a1 1 0 01-1-1v-8a1 1 0 011-1h10a1 1 0 011 1v8zm-6-2c1.1 0 2-.9 2-2s-.9-2-2-2-2 .9-2 2 .9 2 2 2z"/></symbol><symbol viewBox="0 0 16 16" id="message" xmlns="http://www.w3.org/2000/svg"><path d="M8.3 13v-1H4a2 2 0 01-2-2V5a2 2 0 012-2h8a2 2 0 012 2v5a2 2 0 01-2 2h-1.354l-.276.223-2.07 1.679V13z"/></symbol><symbol viewBox="0 0 30 30" id="microphone" xmlns="http://www.w3.org/2000/svg"><path d="M15 2.5a3.75 3.75 0 013.75 3.75v7.5a3.75 3.75 0 01-7.5 0v-7.5A3.75 3.75 0 0115 2.5zm8.75 11.25c0 4.413-3.262 8.05-7.5 8.663v3.837h-2.5v-3.837c-4.238-.613-7.5-4.25-7.5-8.663h2.5a6.25 6.25 0 1012.5 0h2.5z"/><path d="M16.25 22.413c4.238-.613 7.5-4.25 7.5-8.663h-2.5a6.25 6.25 0 01-12.5 0h-2.5c0 4.413 3.262 8.05 7.5 8.663v3.837h2.5v-3.837z"/></symbol><symbol viewBox="0 0 6 5" id="most-popular" xmlns="http://www.w3.org/2000/svg"><path d="M1.914 4.03a.5.5 0 01-.707 0L.147 2.97a.5.5 0 11.706-.706l.706.708L4.381.147a.501.501 0 11.709.708L1.914 4.031z"/></symbol><symbol viewBox="0 0 24 24" id="plus" xmlns="http://www.w3.org/2000/svg"><path fill-rule="evenodd" clip-rule="evenodd" d="M21 13h-8v8h-2v-8H3v-2h8V3h2v8h8v2z"/><path d="M13 11h8v2H11l2-2zm-2 2v8h2v-8h-2z"/></symbol><symbol viewBox="0 0 14 12" id="private" xmlns="http://www.w3.org/2000/svg"><path d="M5 1v10M9 4v4M13 3v6M1 3v6"/></symbol><symbol viewBox="0 0 24 14" id="seen" xmlns="http://www.w3.org/2000/svg"><path d="M18.157 1.867L16.702.5l-6.545 6.146 1.456 1.367 6.544-6.146zM22.534.5L11.613 10.757 7.298 6.714 5.843 8.081l5.77 5.419L24 1.867 22.534.5zM0 8.08l5.77 5.42 1.456-1.367-5.76-5.419L0 8.081z"/></symbol><symbol viewBox="0 0 19 12" id="side-sheet-arrow" xmlns="http://www.w3.org/2000/svg"><path d="M18.766 5H4.596l3.58-3.59L6.766 0l-6 6 6 6 1.41-1.41L4.596 7h14.17V5z"/></symbol><symbol viewBox="0 0 16 16" id="status" xmlns="http://www.w3.org/2000/svg"><path d="M4 6l4 4 4-4"/></symbol><symbol viewBox="0 0 16 16" id="telegram" xmlns="http://www.w3.org/2000/svg"><path d="M14.629 3.698l-2.012 9.618c-.152.679-.548.848-1.11.528l-3.066-2.29-1.48 1.442c-.163.166-.3.305-.616.305l.22-3.165 5.683-5.204c.247-.223-.054-.347-.384-.123L4.839 9.29l-3.024-.959c-.658-.208-.67-.667.137-.986L13.78 2.727c.548-.208 1.027.124.849.971z"/></symbol><symbol viewBox="0 0 24 24" id="three" xmlns="http://www.w3.org/2000/svg"><rect x="3" y="6" width="19" height="2" rx="1"/><rect x="3" y="11" width="14" height="2" rx="1"/><rect x="3" y="16" width="10" height="2" rx="1"/></symbol><symbol viewBox="0 0 16 16" id="viber" xmlns="http://www.w3.org/2000/svg"><path d="M8 1.335c-1.071.013-3.374.19-4.662 1.37-.958.948-1.292 2.35-1.331 4.084-.033 1.728-.072 4.973 3.058 5.856v1.346s-.02.538.337.648c.438.14.688-.275 1.105-.72l.778-.879c2.142.178 3.782-.232 3.97-.293.435-.139 2.883-.451 3.283-3.696.41-3.351-.2-5.463-1.301-6.418h-.007c-.332-.306-1.668-1.279-4.652-1.29 0 0-.222-.014-.578-.008zm.037.942a7.02 7.02 0 01.488.011c2.527.007 3.732.767 4.017 1.023.927.794 1.405 2.697 1.055 5.495-.332 2.713-2.317 2.885-2.685 3.002-.156.05-1.6.406-3.42.289 0 0-1.356 1.634-1.78 2.055-.067.074-.146.095-.196.085-.071-.018-.093-.107-.089-.229l.013-2.233c-2.655-.733-2.498-3.5-2.47-4.946.033-1.446.304-2.628 1.113-3.43 1.088-.982 3.043-1.115 3.953-1.122zm.2 1.446a.166.166 0 100 .332 3.136 3.136 0 012.242.883c.606.588.9 1.378.912 2.411 0 .092.074.167.167.167V7.51a.167.167 0 00.168-.165 3.588 3.588 0 00-1.009-2.646c-.66-.645-1.496-.977-2.48-.977zm-2.198.382a.523.523 0 00-.342.067H5.69a2.61 2.61 0 00-.637.523 1.003 1.003 0 00-.256.525.71.71 0 00.026.302l.01.006c.172.504.396.988.67 1.444a8.48 8.48 0 001.29 1.762l.015.022.024.017.015.018.017.015c.532.505 1.127.94 1.769 1.295.734.4 1.18.588 1.447.667v.004c.078.024.15.034.221.034.228-.016.444-.109.613-.262a2.53 2.53 0 00.517-.638v-.004c.128-.241.085-.469-.1-.623-.37-.323-.77-.61-1.195-.857-.285-.155-.574-.061-.69.095l-.25.315c-.129.156-.361.134-.361.134l-.007.004C7.093 8.527 6.63 6.772 6.63 6.772s-.022-.239.139-.36l.312-.252c.15-.122.254-.41.094-.695a7.498 7.498 0 00-.856-1.194.475.475 0 00-.28-.167zm2.486.495c-.221 0-.221.334.003.334A2.098 2.098 0 0110 5.572 1.94 1.94 0 0110.5 7a.168.168 0 00.167.165l.007.009a.169.169 0 00.167-.167c.015-.662-.191-1.218-.595-1.663C9.84 4.9 9.273 4.65 8.549 4.6h-.024zm.274.898c-.228-.006-.236.335-.01.341.55.029.816.306.851.877a.166.166 0 00.165.163h.007a.168.168 0 00.16-.178c-.039-.744-.445-1.164-1.166-1.202H8.8z"/></symbol><symbol viewBox="0 0 24 24" id="vk" xmlns="http://www.w3.org/2000/svg"><path d="M21.579 6.855c.14-.465 0-.806-.662-.806h-2.193c-.558 0-.813.295-.953.619 0 0-1.115 2.719-2.695 4.482-.51.513-.743.675-1.021.675-.139 0-.341-.162-.341-.627V6.855c0-.558-.161-.806-.626-.806H9.642c-.348 0-.558.258-.558.504 0 .528.79.65.871 2.138v3.228c0 .707-.127.836-.407.836-.743 0-2.551-2.73-3.624-5.853-.209-.607-.42-.852-.98-.852H2.752c-.627 0-.752.295-.752.619 0 .582.743 3.462 3.461 7.27 1.812 2.602 4.363 4.012 6.687 4.012 1.393 0 1.565-.313 1.565-.853v-1.966c0-.626.133-.752.574-.752.324 0 .882.164 2.183 1.417 1.486 1.486 1.732 2.153 2.567 2.153h2.192c.626 0 .939-.313.759-.931-.197-.615-.907-1.51-1.849-2.57-.512-.603-1.277-1.253-1.51-1.578-.325-.42-.231-.604 0-.976.001 0 2.672-3.761 2.95-5.04z"/></symbol><symbol viewBox="0 0 16 16" id="whatsapp" xmlns="http://www.w3.org/2000/svg"><path fill-rule="evenodd" clip-rule="evenodd" d="M12.269 3.755A5.947 5.947 0 008.035 2 5.994 5.994 0 002.05 7.985a5.98 5.98 0 00.799 2.992L2 14.077l3.173-.832c.877.477 1.86.728 2.86.728h.002a5.993 5.993 0 005.533-8.276 5.953 5.953 0 00-1.3-1.942zm-4.234 9.208h-.002c-.89 0-1.765-.24-2.532-.694l-.181-.108-1.883.494.502-1.835-.118-.188a4.965 4.965 0 01-.76-2.647 4.982 4.982 0 016.88-4.597c.604.25 1.152.618 1.613 1.081a4.946 4.946 0 011.455 3.52 4.982 4.982 0 01-4.974 4.974zm2.729-3.726c-.15-.075-.885-.436-1.022-.486-.137-.05-.236-.075-.336.074-.1.15-.387.486-.474.586-.087.1-.175.112-.324.038-.15-.075-.631-.233-1.203-.742a4.505 4.505 0 01-.832-1.036c-.087-.15-.009-.231.066-.306.068-.066.15-.174.224-.262.075-.087.1-.149.15-.249.05-.1.025-.187-.013-.262-.037-.075-.337-.811-.461-1.11-.121-.29-.244-.252-.336-.256a6.418 6.418 0 00-.286-.005.55.55 0 00-.4.186c-.137.15-.523.512-.523 1.248s.536 1.447.61 1.547c.075.1 1.055 1.61 2.555 2.258.358.154.636.246.853.315.358.114.684.098.942.06.287-.043.885-.362 1.01-.711.124-.35.124-.649.087-.711-.038-.063-.138-.101-.287-.176z"/></symbol></svg>