<svg width="24" height="25" viewBox="0 0 24 25" fill="none" xmlns="http://www.w3.org/2000/svg">
<path d="M12 19.5V18.5H11H5C3.89543 18.5 3 17.6046 3 16.5V6.5C3 5.39543 3.89543 4.5 5 4.5H19C20.1046 4.5 21 5.39543 21 6.5V16.5C21 17.6046 20.1046 18.5 19 18.5H17.0523C16.1441 18.5 15.2628 18.8091 14.5536 19.3765L12 21.4194L12 19.5Z" stroke="#264152" stroke-width="2"/>
<path d="M10.708 14.5C10.708 15.05 11.158 15.5 11.708 15.5C12.258 15.5 12.708 15.05 12.708 14.5V12.5H14.708C15.258 12.5 15.708 12.05 15.708 11.5C15.708 10.95 15.258 10.5 14.708 10.5H12.708V8.5C12.708 7.95 12.258 7.5 11.708 7.5C11.158 7.5 10.708 7.95 10.708 8.5V10.5H8.70801C8.15801 10.5 7.70801 10.95 7.70801 11.5C7.70801 12.05 8.15801 12.5 8.70801 12.5H10.708V14.5Z" fill="#0096EB"/>
</svg>
