<svg width="20" height="20" viewBox="0 0 20 20" fill="none" xmlns="http://www.w3.org/2000/svg">
<path d="M1 3C1 1.89543 1.89543 1 3 1H6C7.10457 1 8 1.89543 8 3V6C8 7.10457 7.10457 8 6 8H3C1.89543 8 1 7.10457 1 6V3Z" stroke="#264152" stroke-width="2"/>
<path d="M1 14C1 12.8954 1.89543 12 3 12H6C7.10457 12 8 12.8954 8 14V17C8 18.1046 7.10457 19 6 19H3C1.89543 19 1 18.1046 1 17V14Z" stroke="#264152" stroke-width="2"/>
<path d="M12 3C12 1.89543 12.8954 1 14 1H17C18.1046 1 19 1.89543 19 3V6C19 7.10457 18.1046 8 17 8H14C12.8954 8 12 7.10457 12 6V3Z" stroke="#264152" stroke-width="2"/>
<path d="M12 15.5C12 13.567 13.567 12 15.5 12C17.433 12 19 13.567 19 15.5C19 17.433 17.433 19 15.5 19C13.567 19 12 17.433 12 15.5Z" stroke="#0096EB" stroke-width="2" stroke-linecap="round" stroke-linejoin="round"/>
</svg>
