<svg width="24" height="24" viewBox="0 0 24 24" fill="none" xmlns="http://www.w3.org/2000/svg">
<g clip-path="url(#clip0_10122_101635)">
<path fill-rule="evenodd" clip-rule="evenodd" d="M7.59272 2.83721C7.59272 2.37483 7.96755 2 8.42993 2H15.5581C16.0205 2 16.3953 2.37483 16.3953 2.83721C16.3953 3.29959 16.0205 3.67442 15.5581 3.67442H8.42993C7.96755 3.67442 7.59272 3.29959 7.59272 2.83721ZM3 6.18604C3 5.72366 3.37483 5.34883 3.83721 5.34883H20.1628C20.6252 5.34883 21 5.72366 21 6.18604C21 6.64842 20.6252 7.02325 20.1628 7.02325H3.83721C3.37483 7.02325 3 6.64842 3 6.18604ZM18.4111 7.86642C18.8702 7.92151 19.1977 8.33833 19.1426 8.79741L18.901 10.8109C18.8459 11.2699 18.4291 11.5974 17.97 11.5424C17.5109 11.4873 17.1834 11.0704 17.2385 10.6114L17.4801 8.59791C17.5352 8.13883 17.952 7.81133 18.4111 7.86642ZM5.41188 7.86645C5.87096 7.81136 6.28778 8.13886 6.34287 8.59794L7.4217 17.5881C7.47219 18.0089 7.82915 18.3256 8.25294 18.3256H9.69767C10.1601 18.3256 10.5349 18.7004 10.5349 19.1628C10.5349 19.6252 10.1601 20 9.69767 20H8.25294C6.98155 20 5.91069 19.05 5.75921 17.7876L4.68038 8.79744C4.62529 8.33836 4.95279 7.92154 5.41188 7.86645Z" fill="#EB3333"/>
<path fill-rule="evenodd" clip-rule="evenodd" d="M14.2929 15.2929C14.6834 14.9024 15.3166 14.9024 15.7071 15.2929L17.7071 17.2929C18.0976 17.6834 18.0976 18.3166 17.7071 18.7071C17.3166 19.0976 16.6834 19.0976 16.2929 18.7071L14.2929 16.7071C13.9024 16.3166 13.9024 15.6834 14.2929 15.2929Z" fill="#EB3333"/>
<path fill-rule="evenodd" clip-rule="evenodd" d="M17.7071 15.2929C18.0976 15.6834 18.0976 16.3166 17.7071 16.7071L15.7071 18.7071C15.3166 19.0976 14.6834 19.0976 14.2929 18.7071C13.9024 18.3166 13.9024 17.6834 14.2929 17.2929L16.2929 15.2929C16.6834 14.9024 17.3166 14.9024 17.7071 15.2929Z" fill="#EB3333"/>
<path fill-rule="evenodd" clip-rule="evenodd" d="M12 8C12.5523 8 13 8.36631 13 8.81818L13 16.1818C13 16.6337 12.5523 17 12 17C11.4477 17 11 16.6337 11 16.1818L11 8.81818C11 8.36631 11.4477 8 12 8Z" fill="#EB3333"/>
<path fill-rule="evenodd" clip-rule="evenodd" d="M8.62632 7.91548C9.0747 7.85944 9.48362 8.17749 9.53966 8.62587L10.3578 15.1713C10.4139 15.6197 10.0958 16.0286 9.64746 16.0847C9.19908 16.1407 8.79017 15.8227 8.73412 15.3743L7.91594 8.82883C7.85989 8.38045 8.17794 7.97153 8.62632 7.91548Z" fill="#EB3333"/>
<path fill-rule="evenodd" clip-rule="evenodd" d="M15.3737 7.91548C14.9253 7.85944 14.5164 8.17749 14.4603 8.62587L14.2047 10.6713C14.1486 11.1197 14.4667 11.5286 14.915 11.5847C15.3634 11.6407 15.7723 11.3227 15.8284 10.8743L16.0841 8.82883C16.1401 8.38045 15.8221 7.97153 15.3737 7.91548Z" fill="#EB3333"/>
<path fill-rule="evenodd" clip-rule="evenodd" d="M16 20.3333C17.8409 20.3333 19.3333 18.8409 19.3333 17C19.3333 15.1591 17.8409 13.6667 16 13.6667C14.1591 13.6667 12.6667 15.1591 12.6667 17C12.6667 18.8409 14.1591 20.3333 16 20.3333ZM16 22C18.7614 22 21 19.7614 21 17C21 14.2386 18.7614 12 16 12C13.2386 12 11 14.2386 11 17C11 19.7614 13.2386 22 16 22Z" fill="#EB3333"/>
</g>
<defs>
<clipPath id="clip0_10122_101635">
<rect width="24" height="24" fill="white"/>
</clipPath>
</defs>
</svg>
