<svg width="16" height="11" viewBox="0 0 16 11" fill="none" xmlns="http://www.w3.org/2000/svg">
<path d="M4.80064 10.5C6.82709 10.491 8.63011 9.1551 9.30585 7.16139L12.8002 7.16139L12.8002 7.83069C12.8002 8.38298 13.2479 8.83069 13.8002 8.83069L15 8.83069C15.5523 8.83069 16 8.38298 16 7.83069L16 4.82279C16 4.27051 15.5523 3.82279 15 3.82279L9.30585 3.82279C8.48871 1.42807 6.07869 0.0546442 3.70539 0.630911C1.33287 1.20718 -0.248293 3.54974 0.0321605 6.0757C0.312613 8.60084 2.36406 10.5049 4.80064 10.5ZM4.80064 3.82279C5.68418 3.82279 6.40055 4.57023 6.40055 5.49209C6.40055 6.41396 5.68418 7.16139 4.80064 7.16139C3.91709 7.16139 3.20073 6.41396 3.20073 5.49209C3.20073 4.57023 3.9171 3.82279 4.80064 3.82279Z" fill="#33B4FF"/>
</svg>
