<svg width="30" height="30" viewBox="0 0 30 30" fill="none" xmlns="http://www.w3.org/2000/svg">
<path d="M15 2.5C15.9946 2.5 16.9484 2.89509 17.6517 3.59835C18.3549 4.30161 18.75 5.25544 18.75 6.25V13.75C18.75 14.7446 18.3549 15.6984 17.6517 16.4017C16.9484 17.1049 15.9946 17.5 15 17.5C14.0054 17.5 13.0516 17.1049 12.3483 16.4017C11.6451 15.6984 11.25 14.7446 11.25 13.75V6.25C11.25 5.25544 11.6451 4.30161 12.3483 3.59835C13.0516 2.89509 14.0054 2.5 15 2.5ZM23.75 13.75C23.75 18.1625 20.4875 21.8 16.25 22.4125V26.25H13.75V22.4125C9.5125 21.8 6.25 18.1625 6.25 13.75H8.75C8.75 15.4076 9.40848 16.9973 10.5806 18.1694C11.7527 19.3415 13.3424 20 15 20C16.6576 20 18.2473 19.3415 19.4194 18.1694C20.5915 16.9973 21.25 15.4076 21.25 13.75H23.75Z" fill="#0096EB"/>
<path d="M16.25 22.4125C20.4875 21.8 23.75 18.1625 23.75 13.75H21.25C21.25 15.4076 20.5915 16.9973 19.4194 18.1694C18.2473 19.3415 16.6576 20 15 20C13.3424 20 11.7527 19.3415 10.5806 18.1694C9.40848 16.9973 8.75 15.4076 8.75 13.75H6.25C6.25 18.1625 9.5125 21.8 13.75 22.4125V26.25H16.25V22.4125Z" fill="#264152"/>
</svg>
